<?xml version="1.0" standalone="no"?>
<!DOCTYPE svg PUBLIC "-//W3C//DTD SVG 20010904//EN"
 "http://www.w3.org/TR/2001/REC-SVG-20010904/DTD/svg10.dtd">
<svg version="1.0" xmlns="http://www.w3.org/2000/svg"
 width="10769.000000pt" height="5994.000000pt" viewBox="0 0 10769.000000 5994.000000"
 preserveAspectRatio="xMidYMid meet">

<g transform="translate(0.000000,5994.000000) scale(0.100000,-0.100000)"
fill="#000000" stroke="none">
<path d="M30555 51722 c-1306 -980 -2766 -2220 -4335 -3682 -685 -638 -1080
-1020 -1966 -1903 l-770 -767 -35 14 c-82 34 -506 174 -744 246 -983 297
-1973 485 -2995 569 -478 40 -644 46 -1250 45 -698 0 -1063 -18 -1650 -80
-1871 -198 -3484 -746 -4860 -1649 -1255 -823 -2400 -1831 -3384 -2976 -304
-354 -685 -842 -946 -1213 l-105 -148 -3 2696 -2 2696 -3755 0 -3755 0 0
-22780 0 -22780 3671 0 3671 0 -6 293 c-3 160 -8 6788 -12 14727 -6 14800 -6
14756 31 15285 86 1204 328 2306 725 3300 416 1038 962 1984 1613 2788 377
467 876 973 1322 1343 1339 1110 3053 1822 4810 1998 368 37 456 41 970 41
543 0 703 -8 1095 -55 170 -21 492 -69 499 -75 2 -2 -127 -167 -286 -367
-3392 -4256 -5836 -8298 -7156 -11838 -861 -2308 -1216 -4527 -1061 -6630 123
-1679 585 -3220 1352 -4515 942 -1590 2336 -2769 4032 -3410 1853 -701 4027
-758 6380 -170 1217 305 2642 843 3675 1387 2215 1167 4079 2894 5483 5079
770 1198 1464 2669 1893 4011 611 1915 899 4011 876 6378 -6 582 -13 778 -42
1255 -126 2029 -526 3903 -1185 5549 -589 1472 -1346 2840 -2220 4011 -441
590 -869 1085 -1400 1615 -433 434 -768 736 -1219 1098 l-193 156 -20 -24
c-28 -34 -628 -859 -879 -1210 -908 -1263 -1907 -2709 -2674 -3870 -310 -468
-599 -910 -615 -939 -10 -19 5 -38 144 -186 663 -706 1157 -1418 1605 -2313
515 -1030 855 -2090 1035 -3232 218 -1379 218 -2921 0 -4300 -181 -1146 -519
-2201 -1040 -3243 -442 -883 -943 -1604 -1596 -2297 -1230 -1305 -2540 -2140
-3772 -2404 -546 -117 -1042 -126 -1536 -26 -678 137 -1291 488 -1770 1015
-154 169 -244 284 -375 480 -1038 1550 -1206 3969 -464 6665 468 1698 1497
4033 2897 6570 989 1793 2155 3693 3553 5790 636 954 1357 2001 2024 2940 286
402 744 1042 889 1240 82 113 264 363 404 555 1498 2054 3422 4562 5372 7000
359 449 395 495 388 495 -2 0 -152 -111 -333 -248z"/>
<path d="M47965 45473 c-2630 -67 -4878 -529 -6820 -1403 -246 -110 -778 -377
-998 -499 -1761 -983 -3022 -2190 -3908 -3745 -921 -1613 -1288 -3355 -1134
-5371 135 -1755 685 -3207 1635 -4315 896 -1044 2022 -1921 3240 -2524 491
-244 910 -412 1745 -703 1300 -452 3026 -937 4815 -1352 1174 -273 2606 -664
3553 -970 824 -266 1530 -544 1880 -740 829 -464 1235 -1142 1204 -2011 -22
-589 -233 -1076 -647 -1490 -572 -572 -1391 -907 -2490 -1019 -570 -58 -1250
-53 -1785 15 -946 119 -1813 446 -2518 952 -632 453 -1089 996 -1367 1626
-141 320 -264 774 -295 1094 l-8 72 -5033 0 -5034 0 0 -22 c0 -13 7 -95 15
-183 149 -1580 625 -3041 1433 -4395 368 -618 873 -1293 1387 -1855 153 -167
543 -557 710 -710 1107 -1012 2448 -1862 3981 -2525 1898 -821 3983 -1294
6324 -1434 870 -53 1971 -55 2815 -6 1553 91 2921 319 4245 710 1766 520 3407
1364 4622 2377 473 394 920 843 1293 1298 1053 1284 1699 2805 1885 4438 150
1313 -1 2832 -401 4055 -327 997 -769 1771 -1446 2535 -1111 1252 -2442 2202
-3908 2787 -1331 531 -3280 1141 -5475 1714 -513 133 -604 156 -965 236 -1909
426 -3441 888 -4376 1320 -662 306 -1092 686 -1329 1175 -146 301 -205 574
-204 950 1 236 16 374 65 575 210 858 937 1482 2044 1755 466 115 959 167
1575 167 667 0 1180 -60 1728 -202 1332 -346 2359 -1190 2852 -2344 137 -322
238 -684 306 -1103 l5 -33 4704 0 c4534 0 4705 1 4705 18 0 10 -14 126 -30
258 -170 1347 -495 2550 -996 3684 -177 402 -486 985 -729 1375 -640 1030
-1464 1970 -2432 2777 -2138 1782 -4963 2767 -8493 2963 -555 30 -1386 43
-1945 28z"/>
<path d="M90990 45469 c-3497 -114 -6570 -1044 -9160 -2772 -1916 -1278 -3444
-2937 -4623 -5017 -1032 -1823 -1698 -3885 -1992 -6170 -161 -1260 -212 -2657
-145 -3980 165 -3217 983 -5982 2483 -8390 1257 -2018 2874 -3613 4892 -4825
657 -395 1418 -776 2140 -1073 1509 -620 3159 -1026 4905 -1206 1369 -142
2835 -150 4205 -26 1956 179 3746 628 5377 1351 2061 913 3924 2313 5349 4020
1195 1431 2107 3082 2744 4969 193 571 339 1086 509 1793 l14 57 -5422 0
-5421 0 -74 -187 c-453 -1151 -1091 -2014 -1930 -2613 -270 -193 -680 -415
-996 -539 -726 -285 -1505 -413 -2420 -398 -345 6 -544 21 -832 62 -911 132
-1718 460 -2419 983 -420 313 -841 738 -1181 1193 -902 1207 -1417 2837 -1553
4914 -43 666 -41 1549 5 2240 126 1862 575 3385 1342 4553 112 171 290 408
439 587 134 161 447 480 614 628 895 789 1984 1224 3274 1308 234 15 895 6
1106 -15 235 -24 436 -53 640 -92 1496 -287 2622 -1083 3420 -2419 170 -283
406 -781 525 -1102 l38 -103 5420 0 5419 0 -6 44 c-21 138 -233 948 -351 1341
-708 2351 -1781 4301 -3289 5975 -176 196 -744 762 -940 939 -1037 931 -2098
1652 -3326 2260 -1989 986 -4229 1544 -6765 1686 -605 34 -1422 44 -2015 24z"/>
<path d="M64260 28760 l0 -16310 5095 0 5095 0 0 16310 0 16310 -5095 0 -5095
0 0 -16310z"/>
</g>
</svg>
